<mxfile host="app.diagrams.net" modified="2023-04-12T09:10:56.199Z" agent="Mozilla/5.0 (Windows NT 10.0; Win64; x64) AppleWebKit/537.36 (KHTML, like Gecko) Chrome/112.0.0.0 Safari/537.36 Edg/112.0.1722.34" etag="D_yyLHKnM1HcIuT0CUZ4" version="21.1.6" type="github">
  <diagram name="PÃ¡gina-1" id="HpgI4KPrhQBLUDR12Fhb">
    <mxGraphModel dx="1434" dy="788" grid="1" gridSize="10" guides="1" tooltips="1" connect="1" arrows="1" fold="1" page="1" pageScale="1" pageWidth="827" pageHeight="1169" math="0" shadow="0">
      <root>
        <mxCell id="0" />
        <mxCell id="1" parent="0" />
        <mxCell id="8-8KeT2LcudaI69BfsBe-1" value="" style="edgeStyle=orthogonalEdgeStyle;rounded=0;orthogonalLoop=1;jettySize=auto;html=1;" edge="1" parent="1" source="8-8KeT2LcudaI69BfsBe-2" target="8-8KeT2LcudaI69BfsBe-4">
          <mxGeometry relative="1" as="geometry" />
        </mxCell>
        <mxCell id="8-8KeT2LcudaI69BfsBe-2" value="INICIO" style="ellipse;whiteSpace=wrap;html=1;" vertex="1" parent="1">
          <mxGeometry x="60" y="70" width="120" height="50" as="geometry" />
        </mxCell>
        <mxCell id="8-8KeT2LcudaI69BfsBe-3" value="" style="edgeStyle=orthogonalEdgeStyle;rounded=0;orthogonalLoop=1;jettySize=auto;html=1;" edge="1" parent="1" source="8-8KeT2LcudaI69BfsBe-4" target="8-8KeT2LcudaI69BfsBe-6">
          <mxGeometry relative="1" as="geometry" />
        </mxCell>
        <mxCell id="8-8KeT2LcudaI69BfsBe-4" value="&lt;div style=&quot;background-color: rgb(255, 255, 254); font-family: Consolas, &amp;quot;Courier New&amp;quot;, monospace; font-size: 14px; line-height: 19px;&quot;&gt;Fijamos tanto el led interno como el PIN 12, como salidas digitales&lt;/div&gt;" style="rounded=0;whiteSpace=wrap;html=1;" vertex="1" parent="1">
          <mxGeometry x="60" y="150" width="120" height="110" as="geometry" />
        </mxCell>
        <mxCell id="8-8KeT2LcudaI69BfsBe-5" value="" style="edgeStyle=orthogonalEdgeStyle;rounded=0;orthogonalLoop=1;jettySize=auto;html=1;" edge="1" parent="1" source="8-8KeT2LcudaI69BfsBe-6" target="8-8KeT2LcudaI69BfsBe-8">
          <mxGeometry relative="1" as="geometry" />
        </mxCell>
        <mxCell id="8-8KeT2LcudaI69BfsBe-6" value="&lt;div style=&quot;background-color: rgb(255, 255, 254); font-family: Consolas, &amp;quot;Courier New&amp;quot;, monospace; font-size: 14px; line-height: 19px;&quot;&gt;Encendemos los led (interno y el conectado a la salida digital 12)&lt;/div&gt;" style="whiteSpace=wrap;html=1;rounded=0;" vertex="1" parent="1">
          <mxGeometry x="60" y="300" width="120" height="125" as="geometry" />
        </mxCell>
        <mxCell id="8-8KeT2LcudaI69BfsBe-7" value="" style="edgeStyle=orthogonalEdgeStyle;rounded=0;orthogonalLoop=1;jettySize=auto;html=1;" edge="1" parent="1" source="8-8KeT2LcudaI69BfsBe-8" target="8-8KeT2LcudaI69BfsBe-10">
          <mxGeometry relative="1" as="geometry" />
        </mxCell>
        <mxCell id="8-8KeT2LcudaI69BfsBe-8" value="Esperamos 300ms" style="whiteSpace=wrap;html=1;rounded=0;" vertex="1" parent="1">
          <mxGeometry x="60" y="460" width="120" height="60" as="geometry" />
        </mxCell>
        <mxCell id="8-8KeT2LcudaI69BfsBe-9" value="" style="edgeStyle=orthogonalEdgeStyle;rounded=0;orthogonalLoop=1;jettySize=auto;html=1;" edge="1" parent="1" source="8-8KeT2LcudaI69BfsBe-10" target="8-8KeT2LcudaI69BfsBe-12">
          <mxGeometry relative="1" as="geometry" />
        </mxCell>
        <mxCell id="8-8KeT2LcudaI69BfsBe-10" value="&lt;div style=&quot;background-color: rgb(255, 255, 254); font-family: Consolas, &amp;quot;Courier New&amp;quot;, monospace; font-size: 14px; line-height: 19px;&quot;&gt;Apagamos los led (interno y el conectado a la salida digital 12)&lt;/div&gt;" style="whiteSpace=wrap;html=1;rounded=0;" vertex="1" parent="1">
          <mxGeometry x="60" y="550" width="120" height="125" as="geometry" />
        </mxCell>
        <mxCell id="8-8KeT2LcudaI69BfsBe-11" style="edgeStyle=orthogonalEdgeStyle;rounded=0;orthogonalLoop=1;jettySize=auto;html=1;exitX=0.5;exitY=1;exitDx=0;exitDy=0;" edge="1" parent="1" source="8-8KeT2LcudaI69BfsBe-12">
          <mxGeometry relative="1" as="geometry">
            <mxPoint x="120" y="270" as="targetPoint" />
            <Array as="points">
              <mxPoint x="120" y="800" />
              <mxPoint x="260" y="800" />
              <mxPoint x="260" y="280" />
              <mxPoint x="120" y="280" />
            </Array>
          </mxGeometry>
        </mxCell>
        <mxCell id="8-8KeT2LcudaI69BfsBe-12" value="Esperamos 300ms" style="whiteSpace=wrap;html=1;rounded=0;" vertex="1" parent="1">
          <mxGeometry x="60" y="710" width="120" height="60" as="geometry" />
        </mxCell>
        <mxCell id="8-8KeT2LcudaI69BfsBe-13" value="&lt;span style=&quot;color: rgb(255, 255, 255); font-family: -apple-system, BlinkMacSystemFont, &amp;quot;Segoe UI&amp;quot;, Roboto, Oxygen, Ubuntu, Cantarell, &amp;quot;Fira Sans&amp;quot;, &amp;quot;Droid Sans&amp;quot;, &amp;quot;Helvetica Neue&amp;quot;, sans-serif; font-size: 16px; font-style: normal; font-variant-ligatures: normal; font-variant-caps: normal; font-weight: 600; letter-spacing: 0.15008px; orphans: 2; text-align: start; text-indent: 0px; text-transform: none; widows: 2; word-spacing: 0px; -webkit-text-stroke-width: 0px; background-color: rgb(26, 26, 26); text-decoration-thickness: initial; text-decoration-style: initial; text-decoration-color: initial; float: none; display: inline !important;&quot;&gt;00-Parpadeo LED&lt;/span&gt;" style="text;whiteSpace=wrap;html=1;" vertex="1" parent="1">
          <mxGeometry x="60" y="20" width="160" height="40" as="geometry" />
        </mxCell>
      </root>
    </mxGraphModel>
  </diagram>
</mxfile>
